{
  "accessors": [
    {
      "bufferView": 2,
      "componentType": 5126,
      "count": 449,
      "max": [
        55.573051452636719,
        47.990299224853516,
        56.418636322021484
      ],
      "min": [
        -55.870407104492188,
        -0.77414155006408691,
        -56.052398681640625
      ],
      "type": "VEC3"
    },
    {
      "bufferView": 2,
      "byteOffset": 5388,
      "componentType": 5126,
      "count": 449,
      "max": [
        0.99929267168045044,
        0.99991893768310547,
        0.99879634380340576
      ],
      "min": [
        -0.99968487024307251,
        -1,
        -0.99816930294036865
      ],
      "type": "VEC3"
    },
    {
      "bufferView": 3,
      "componentType": 5126,
      "count": 449,
      "max": [
        0.99999779462814331,
        0.88932204246520996,
        0.99943369626998901,
        1
      ],
      "min": [
        -0.99986439943313599,
        -0.93329775333404541,
        -0.99975824356079102,
        -1
      ],
      "type": "VEC4"
    },
    {
      "bufferView": 1,
      "componentType": 5126,
      "count": 449,
      "max": [
        0.93433451652526855,
        0.99605381488800049
      ],
      "min": [
        0.003946173470467329,
        0.0039461851119995117
      ],
      "type": "VEC2"
    },
    {
      "bufferView": 1,
      "byteOffset": 3592,
      "componentType": 5126,
      "count": 449,
      "max": [
        0.93433451652526855,
        0.99605381488800049
      ],
      "min": [
        0.003946173470467329,
        0.0039461851119995117
      ],
      "type": "VEC2"
    },
    {
      "bufferView": 0,
      "componentType": 5125,
      "count": 2142,
      "max": [
        448
      ],
      "min": [
        0
      ],
      "type": "SCALAR"
    },
    {
      "bufferView": 2,
      "byteOffset": 10776,
      "componentType": 5126,
      "count": 13,
      "max": [
        48.747959136962891,
        0,
        48.747959136962891
      ],
      "min": [
        -48.747959136962891,
        0,
        -48.747959136962891
      ],
      "type": "VEC3"
    },
    {
      "bufferView": 2,
      "byteOffset": 10932,
      "componentType": 5126,
      "count": 13,
      "max": [
        0,
        1,
        -0
      ],
      "min": [
        0,
        1,
        -0
      ],
      "type": "VEC3"
    },
    {
      "bufferView": 3,
      "byteOffset": 7184,
      "componentType": 5126,
      "count": 13,
      "max": [
        1,
        0,
        1.9563371367325999e-08,
        1
      ],
      "min": [
        1,
        0,
        -9.7816856836629995e-09,
        1
      ],
      "type": "VEC4"
    },
    {
      "bufferView": 1,
      "byteOffset": 7184,
      "componentType": 5126,
      "count": 13,
      "max": [
        1,
        1
      ],
      "min": [
        0,
        0
      ],
      "type": "VEC2"
    },
    {
      "bufferView": 1,
      "byteOffset": 7288,
      "componentType": 5126,
      "count": 13,
      "max": [
        1,
        1
      ],
      "min": [
        0,
        0
      ],
      "type": "VEC2"
    },
    {
      "bufferView": 0,
      "byteOffset": 8568,
      "componentType": 5125,
      "count": 36,
      "max": [
        12
      ],
      "min": [
        0
      ],
      "type": "SCALAR"
    }
  ],
  "asset": {
    "extras": {
      "author": "3DMaesen (https://sketchfab.com/bumstrum)",
      "license": "CC-BY-4.0 (http://creativecommons.org/licenses/by/4.0/)",
      "source": "https://sketchfab.com/3d-models/water-drinking-pool-85565ec5894e4fcc8e0f2fe363468b94",
      "title": "Water drinking pool"
    },
    "generator": "Sketchfab-9.31.0",
    "version": "2.0"
  },
  "bufferViews": [
    {
      "buffer": 0,
      "byteLength": 8712,
      "byteOffset": 0,
      "name": "floatBufferViews",
      "target": 34963
    },
    {
      "buffer": 0,
      "byteLength": 7392,
      "byteOffset": 8712,
      "byteStride": 8,
      "name": "floatBufferViews",
      "target": 34962
    },
    {
      "buffer": 0,
      "byteLength": 11088,
      "byteOffset": 16104,
      "byteStride": 12,
      "name": "floatBufferViews",
      "target": 34962
    },
    {
      "buffer": 0,
      "byteLength": 7392,
      "byteOffset": 27192,
      "byteStride": 16,
      "name": "floatBufferViews",
      "target": 34962
    }
  ],
  "buffers": [
    {
      "byteLength": 34584,
      "uri": "scene.bin"
    }
  ],
  "images": [
    {
      "uri": "textures/waterpit_baseColor.png"
    },
    {
      "uri": "textures/waterpit_metallicRoughness.png"
    },
    {
      "uri": "textures/waterpit_normal.png"
    },
    {
      "uri": "textures/water_baseColor.jpeg"
    },
    {
      "uri": "textures/water_normal.jpeg"
    }
  ],
  "materials": [
    {
      "doubleSided": false,
      "name": "waterpit",
      "normalTexture": {
        "index": 2,
        "scale": 1,
        "texCoord": 0
      },
      "occlusionTexture": {
        "index": 1,
        "strength": 1,
        "texCoord": 0
      },
      "pbrMetallicRoughness": {
        "baseColorFactor": [
          1,
          1,
          1,
          1
        ],
        "baseColorTexture": {
          "index": 0,
          "texCoord": 0
        },
        "metallicFactor": 1,
        "metallicRoughnessTexture": {
          "index": 1,
          "texCoord": 0
        },
        "roughnessFactor": 1
      }
    },
    {
      "alphaMode": "BLEND",
      "doubleSided": true,
      "name": "water",
      "normalTexture": {
        "index": 4,
        "scale": 1,
        "texCoord": 0
      },
      "pbrMetallicRoughness": {
        "baseColorFactor": [
          1,
          1,
          1,
          0.062511780335503961
        ],
        "baseColorTexture": {
          "index": 3,
          "texCoord": 0
        },
        "metallicFactor": 0.31787905319543502,
        "roughnessFactor": 0
      }
    }
  ],
  "meshes": [
    {
      "name": "waterpotlow_waterpit_0",
      "primitives": [
        {
          "attributes": {
            "NORMAL": 1,
            "POSITION": 0,
            "TANGENT": 2,
            "TEXCOORD_0": 3,
            "TEXCOORD_1": 4
          },
          "indices": 5,
          "material": 0,
          "mode": 4
        }
      ]
    },
    {
      "name": "water_water_0",
      "primitives": [
        {
          "attributes": {
            "NORMAL": 7,
            "POSITION": 6,
            "TANGENT": 8,
            "TEXCOORD_0": 9,
            "TEXCOORD_1": 10
          },
          "indices": 11,
          "material": 1,
          "mode": 4
        }
      ]
    }
  ],
  "nodes": [
    {
      "children": [
        1
      ],
      "name": "RootNode (gltf orientation matrix)",
      "rotation": [
        -0.70710678118654746,
        -0,
        -0,
        0.70710678118654757
      ]
    },
    {
      "children": [
        2
      ],
      "name": "RootNode (model correction matrix)"
    },
    {
      "children": [
        3
      ],
      "matrix": [
        1,
        0,
        0,
        0,
        0,
        0,
        1,
        0,
        0,
        -1,
        0,
        0,
        0,
        0,
        0,
        1
      ],
      "name": "bf62acf9009844138569e08bc063824a.fbx"
    },
    {
      "children": [
        4
      ],
      "name": "RootNode"
    },
    {
      "children": [
        5,
        6
      ],
      "name": "waterpotlow"
    },
    {
      "mesh": 0,
      "name": "waterpotlow_waterpit_0"
    },
    {
      "children": [
        7
      ],
      "matrix": [
        1,
        0,
        0,
        0,
        0,
        1,
        0,
        0,
        0,
        0,
        1,
        0,
        0,
        42.059005737304688,
        0,
        1
      ],
      "name": "water"
    },
    {
      "mesh": 1,
      "name": "water_water_0"
    }
  ],
  "samplers": [
    {
      "magFilter": 9729,
      "minFilter": 9987,
      "wrapS": 10497,
      "wrapT": 10497
    }
  ],
  "scene": 0,
  "scenes": [
    {
      "name": "OSG_Scene",
      "nodes": [
        0
      ]
    }
  ],
  "textures": [
    {
      "sampler": 0,
      "source": 0
    },
    {
      "sampler": 0,
      "source": 1
    },
    {
      "sampler": 0,
      "source": 2
    },
    {
      "sampler": 0,
      "source": 3
    },
    {
      "sampler": 0,
      "source": 4
    }
  ]
}

